<?xml version="1.0" encoding="UTF-8" standalone="no"?>
<!-- Created with Inkscape (http://www.inkscape.org/) -->

<svg
   xmlns:dc="http://purl.org/dc/elements/1.1/"
   xmlns:cc="http://creativecommons.org/ns#"
   xmlns:rdf="http://www.w3.org/1999/02/22-rdf-syntax-ns#"
   xmlns:svg="http://www.w3.org/2000/svg"
   xmlns="http://www.w3.org/2000/svg"
   xmlns:sodipodi="http://sodipodi.sourceforge.net/DTD/sodipodi-0.dtd"
   xmlns:inkscape="http://www.inkscape.org/namespaces/inkscape"
   width="200"
   height="169.74603"
   id="svg2"
   version="1.1"
   inkscape:version="0.47 r22583"
   sodipodi:docname="Mac_OS_Logo_without_Text.svg">
  <title
     id="title3043">Mac-OS Logo with Text</title>
  <defs
     id="defs4">
    <inkscape:perspective
       sodipodi:type="inkscape:persp3d"
       inkscape:vp_x="0 : 526.18109 : 1"
       inkscape:vp_y="0 : 1000 : 0"
       inkscape:vp_z="744.09448 : 526.18109 : 1"
       inkscape:persp3d-origin="372.04724 : 350.78739 : 1"
       id="perspective10" />
    <inkscape:perspective
       id="perspective2824"
       inkscape:persp3d-origin="0.5 : 0.33333333 : 1"
       inkscape:vp_z="1 : 0.5 : 1"
       inkscape:vp_y="0 : 1000 : 0"
       inkscape:vp_x="0 : 0.5 : 1"
       sodipodi:type="inkscape:persp3d" />
    <inkscape:perspective
       id="perspective2875"
       inkscape:persp3d-origin="0.5 : 0.33333333 : 1"
       inkscape:vp_z="1 : 0.5 : 1"
       inkscape:vp_y="0 : 1000 : 0"
       inkscape:vp_x="0 : 0.5 : 1"
       sodipodi:type="inkscape:persp3d" />
    <inkscape:perspective
       id="perspective2889"
       inkscape:persp3d-origin="0.5 : 0.33333333 : 1"
       inkscape:vp_z="1 : 0.5 : 1"
       inkscape:vp_y="0 : 1000 : 0"
       inkscape:vp_x="0 : 0.5 : 1"
       sodipodi:type="inkscape:persp3d" />
    <inkscape:perspective
       id="perspective2932"
       inkscape:persp3d-origin="0.5 : 0.33333333 : 1"
       inkscape:vp_z="1 : 0.5 : 1"
       inkscape:vp_y="0 : 1000 : 0"
       inkscape:vp_x="0 : 0.5 : 1"
       sodipodi:type="inkscape:persp3d" />
    <inkscape:perspective
       id="perspective2967"
       inkscape:persp3d-origin="0.5 : 0.33333333 : 1"
       inkscape:vp_z="1 : 0.5 : 1"
       inkscape:vp_y="0 : 1000 : 0"
       inkscape:vp_x="0 : 0.5 : 1"
       sodipodi:type="inkscape:persp3d" />
  </defs>
  <sodipodi:namedview
     id="base"
     pagecolor="#ffffff"
     bordercolor="#666666"
     borderopacity="1.0"
     inkscape:pageopacity="0.0"
     inkscape:pageshadow="2"
     inkscape:zoom="1"
     inkscape:cx="336"
     inkscape:cy="38.987947"
     inkscape:document-units="px"
     inkscape:current-layer="layer1"
     showgrid="true"
     inkscape:window-width="1280"
     inkscape:window-height="710"
     inkscape:window-x="-4"
     inkscape:window-y="-4"
     inkscape:window-maximized="1"
     inkscape:snap-bbox="true"
     inkscape:snap-nodes="true">
    <inkscape:grid
       type="xygrid"
       id="grid2848"
       empspacing="5"
       visible="true"
       enabled="true"
       snapvisiblegridlinesonly="true" />
  </sodipodi:namedview>
  <metadata
     id="metadata7">
    <rdf:RDF>
      <cc:Work
         rdf:about="">
        <dc:format>image/svg+xml</dc:format>
        <dc:type
           rdf:resource="http://purl.org/dc/dcmitype/StillImage" />
        <dc:title>Mac-OS Logo with Text</dc:title>
        <dc:creator>
          <cc:Agent>
            <dc:title>Apple Corporation</dc:title>
          </cc:Agent>
        </dc:creator>
        <dc:contributor>
          <cc:Agent>
            <dc:title>Devin Cook</dc:title>
          </cc:Agent>
        </dc:contributor>
        <dc:description>This is the logo Apple debuted for Mac-OS 8. </dc:description>
        <cc:license
           rdf:resource="http://creativecommons.org/licenses/publicdomain/" />
      </cc:Work>
      <cc:License
         rdf:about="http://creativecommons.org/licenses/publicdomain/">
        <cc:permits
           rdf:resource="http://creativecommons.org/ns#Reproduction" />
        <cc:permits
           rdf:resource="http://creativecommons.org/ns#Distribution" />
        <cc:permits
           rdf:resource="http://creativecommons.org/ns#DerivativeWorks" />
      </cc:License>
    </rdf:RDF>
  </metadata>
  <g
     inkscape:label="Layer 1"
     inkscape:groupmode="layer"
     id="layer1"
     transform="translate(1045.9232,-1169.2216)">
    <path
       sodipodi:nodetypes="ccccc"
       id="path2844"
       d="m -999.92314,1293.9676 0,-89.5 109.99999,0 0,89.5 -109.99999,0 z"
       style="fill:#b0a7d2" />
    <path
       sodipodi:nodetypes="cccccsscsssccccc"
       id="path2838"
       d="m -937.92315,1293.9676 -61.99999,0 0,-89.5 58.49999,0 0.62177,6.072 c -7.52781,13.0601 -11.07484,27.4848 -12.58788,41.1171 -0.10085,0.9087 -0.16402,1.6853 -0.14037,1.7258 0.0236,0.041 5.58175,0.074 11.12913,0.075 5.54738,8e-4 8.74334,0.038 8.81325,0.082 0.0996,0.063 0.0105,-0.4648 -0.4124,1.1852 -1.26244,4.9255 -2.01915,9.2769 -2.32301,13.3581 -0.11511,1.5459 -0.16313,3.3173 -0.0919,3.3883 l -0.0444,5.4715 0.0626,1.4915 c 0.17968,4.2806 0.87616,8.82 2.09866,13.6783 l -3.62554,1.8551 z"
       style="fill:#5972ba" />
    <path
       sodipodi:nodetypes="ccssssssccccccccccc"
       id="path2834"
       d="m -939.95948,1277.3212 -4.66946,0 c -2.23819,0 -4.89111,-0.045 -5.89537,-0.1 -12.03348,-0.6554 -22.7469,-3.1525 -30.59668,-7.1316 -1.93418,-0.9805 -2.46748,-1.2972 -2.46748,-1.4656 0,-0.2014 2.76817,-4.0797 2.91187,-4.0797 0.0651,0 0.80235,0.3257 1.63827,0.7239 10.00248,4.7641 21.36206,6.9774 35.05241,6.8294 1.97172,-0.021 3.85996,-0.073 3.91821,-0.1332 l 0.10823,5.3563 z m -33.12095,-46.5097 c -0.0263,-0.068 -0.0362,-3.0212 -0.0222,-6.5618 l 0.0256,-6.4374 2.81292,0 2.81292,0 0,6.5357 0,6.5357 -2.79075,0.026 c -2.17936,0.02 -2.80121,0 -2.83849,-0.098 z"
       style="fill:#28277a" />
    <path
       sodipodi:nodetypes="cssssssssssssscccccscccsssssssssssscccccccccccc"
       id="path2832"
       d="m -932.93392,1307.1248 c -2.8956,-5.954 -5.16226,-13.0344 -6.33186,-19.779 -0.50039,-2.8855 -0.74388,-5.0078 -1.0881,-9.484 -0.38893,-5.0577 0.12593,-12.2602 1.28425,-17.9655 0.21727,-1.0701 0.36889,-1.9878 0.33694,-2.0393 -0.0361,-0.058 -3.69076,-0.094 -9.67542,-0.094 -7.62469,0 -9.61863,-0.025 -9.62364,-0.1229 -0.12027,-2.3401 0.4788,-8.7105 1.25003,-13.2924 2.08558,-12.3906 6.93104,-25.3577 13.93709,-37.2975 1.99245,-3.3956 5.49543,-8.6395 8.10808,-12.1377 1.24323,-1.6646 4.36829,-5.592 4.52765,-5.6901 0.0946,-0.058 3.76714,2.9548 3.76714,3.0906 0,0.048 -0.57009,0.8074 -1.26685,1.6874 -12.30027,15.5357 -20.22862,31.8608 -23.59216,48.5782 -0.64423,3.202 -1.29997,7.7577 -1.32975,9.2384 l -0.0158,0.7863 10.20208,0.025 10.20209,0.025 -0.0475,0.2207 c -0.0261,0.1214 -0.22731,0.9062 -0.44706,1.744 -1.49867,5.714 -2.48343,12.1279 -2.48826,16.2063 l -9.9e-4,0.8254 0.76492,-0.059 c 0.4207,-0.033 1.87522,-0.2184 3.23225,-0.4131 8.5878,-1.232 13.80018,-2.709 20.29099,-5.7497 0.93061,-0.436 1.73846,-0.8021 1.79521,-0.8135 0.0568,-0.012 0.73547,0.8636 1.50827,1.9447 1.29551,1.8124 1.39316,1.979 1.25237,2.1373 -0.25081,0.2821 -4.4935,2.3488 -6.19259,3.0167 -6.0181,2.3654 -13.22087,4.0411 -20.92419,4.868 -0.81426,0.087 -1.5424,0.1801 -1.61809,0.206 -0.11313,0.039 -0.12572,0.287 -0.0708,1.3961 0.43453,8.7762 2.63714,17.7456 6.28052,25.5751 1.21569,2.6125 1.31861,2.8455 1.27453,2.8859 -0.0542,0.05 -4.41383,2.1264 -4.46383,2.1264 -0.0203,0 -0.39717,-0.7408 -0.83749,-1.6462 l 10e-6,0 z m 6.95426,-76.2561 c -0.037,-0.037 -0.0673,-3.0013 -0.0673,-6.5877 l 0,-6.5208 2.8376,0.026 2.83759,0.026 0,6.5357 0,6.5357 -2.77029,0.026 c -1.52366,0.014 -2.80057,0 -2.83759,-0.041 l 0,-10e-5 z"
       style="fill:#020202" />
  </g>
</svg>
